<svg width="90" height="33" viewBox="0 0 90 33" fill="none" xmlns="http://www.w3.org/2000/svg">
<mask id="mask0_8194_1151" style="mask-type:luminance" maskUnits="userSpaceOnUse" x="0" y="28" width="5" height="5">
<path d="M4.43819 30.8813C4.43819 30.0021 4.44491 29.1632 4.46504 28.7169H4.44491C4.26705 29.3176 3.35431 31.529 2.78384 32.9451H2.44492C2.01539 31.8478 1.07244 29.388 0.867743 28.7102H0.85432C0.887877 29.2236 0.897944 30.2672 0.897944 31.0357V32.9451H0.555664V28.4585H1.0758C1.68989 29.9954 2.46505 32.0088 2.63283 32.5155H2.64626C2.74693 32.19 3.64625 29.9518 4.27377 28.4585H4.78719V32.9451H4.44155V30.8813H4.43819Z" fill="white"/>
</mask>
<g mask="url(#mask0_8194_1151)">
<path d="M0.64962 28.4585L0.632842 32.9417H0.555664V28.4585H0.64962Z" fill="white"/>
<path d="M1.11603 28.4585L1.09925 32.9417H0.632812L0.649591 28.4585H1.11603Z" fill="white"/>
<path d="M1.58282 28.4585L1.56605 32.9417H1.09961L1.11639 28.4585H1.58282Z" fill="white"/>
<path d="M2.04865 28.4585L2.03187 32.9417H1.56543L1.58221 28.4585H2.04865Z" fill="white"/>
<path d="M2.51545 28.4585L2.49867 32.9417H2.03223L2.04901 28.4585H2.51545Z" fill="white"/>
<path d="M2.98225 28.4585L2.96547 32.9417H2.49902L2.5158 28.4585H2.98225Z" fill="white"/>
<path d="M3.44807 28.4585L3.43129 32.9417H2.96484L2.98162 28.4585H3.44807Z" fill="white"/>
<path d="M3.9115 28.4585L3.89808 32.9417H3.43164L3.44842 28.4585H3.9115Z" fill="white"/>
<path d="M4.37733 28.4585L4.3639 32.9417H3.89746L3.91088 28.4585H4.37733Z" fill="white"/>
<path d="M4.36426 32.9417L4.37768 28.4585H4.78372V32.9417H4.36426Z" fill="white"/>
</g>
<mask id="mask1_8194_1151" style="mask-type:luminance" maskUnits="userSpaceOnUse" x="5" y="28" width="5" height="6">
<path d="M9.8074 30.6693C9.8074 31.8941 9.15304 33.0082 7.7705 33.0082C6.50876 33.0082 5.77051 31.988 5.77051 30.7028C5.77051 29.4176 6.48191 28.3975 7.81412 28.3975C9.04566 28.3975 9.8074 29.3639 9.8074 30.6726V30.6693ZM6.14299 30.6793C6.14299 31.7095 6.71346 32.686 7.79063 32.686C8.9517 32.686 9.43828 31.7364 9.43828 30.676C9.43828 29.6156 8.88794 28.7163 7.80406 28.7163C6.6497 28.7163 6.14299 29.6726 6.14299 30.6827V30.6793Z" fill="white"/>
</mask>
<g mask="url(#mask1_8194_1151)">
<path d="M6.24325 28.7129L6.22647 32.686H6.14258V28.7129H6.24325Z" fill="white"/>
<path d="M6.70979 28.7129L6.69301 32.686H6.22656L6.24334 28.7129H6.70979Z" fill="white"/>
<path d="M7.17657 28.7129L7.1598 32.686H6.69336L6.71014 28.7129H7.17657Z" fill="white"/>
<path d="M7.63905 28.7129L7.62562 32.686H7.15918L7.17596 28.7129H7.63905Z" fill="white"/>
<path d="M8.10584 28.7129L8.09242 32.686H7.62598L7.6394 28.7129H8.10584Z" fill="white"/>
<path d="M8.57264 28.7129L8.55922 32.686H8.09277L8.1062 28.7129H8.57264Z" fill="white"/>
<path d="M9.03944 28.7129L9.02601 32.686H8.55957L8.57299 28.7129H9.03944Z" fill="white"/>
<path d="M9.02539 32.686L9.03881 28.7129H9.43814V32.686H9.02539Z" fill="white"/>
<path d="M5.77722 28.3936L5.77051 30.0009V28.3936H5.77722Z" fill="white"/>
<path d="M6.24366 28.3936L6.22688 33.0043H5.77051V30.0009L5.77722 28.3936H6.24366Z" fill="white"/>
<path d="M6.70979 28.3945L6.69301 33.0053H6.22656L6.24334 28.3945H6.70979Z" fill="white"/>
<path d="M7.17657 28.3945L7.1598 33.0053H6.69336L6.71014 28.3945H7.17657Z" fill="white"/>
<path d="M7.6424 28.3945L7.62562 33.0053H7.15918L7.17596 28.3945H7.6424Z" fill="white"/>
<path d="M8.1092 28.3945L8.09242 33.0053H7.62598L7.64276 28.3945H8.1092Z" fill="white"/>
<path d="M8.576 28.3945L8.55922 33.0053H8.09277L8.10955 28.3945H8.576Z" fill="white"/>
<path d="M9.04279 28.3945L9.02601 33.0053H8.55957L8.57635 28.3945H9.04279Z" fill="white"/>
<path d="M9.50525 28.3945L9.48847 33.0053H9.02539L9.04217 28.3945H9.50525Z" fill="white"/>
<path d="M9.48828 33.0053L9.50506 28.3945H9.80708V33.0053H9.48828Z" fill="white"/>
</g>
<mask id="mask2_8194_1151" style="mask-type:luminance" maskUnits="userSpaceOnUse" x="10" y="28" width="4" height="5">
<path d="M11.6024 28.7773H10.0957V28.4585H13.4648V28.7773H11.9514V32.9417H11.5991V28.7773H11.6024Z" fill="white"/>
</mask>
<g mask="url(#mask2_8194_1151)">
<path d="M10.438 28.4585L10.4212 32.9417H10.0957V28.4585H10.438Z" fill="white"/>
<path d="M10.9041 28.4585L10.8873 32.9417H10.4209L10.4377 28.4585H10.9041Z" fill="white"/>
<path d="M11.3709 28.4585L11.3541 32.9417H10.8877L10.9045 28.4585H11.3709Z" fill="white"/>
<path d="M11.8377 28.4585L11.8209 32.9417H11.3545L11.3713 28.4585H11.8377Z" fill="white"/>
<path d="M12.3035 28.4585L12.2868 32.9417H11.8203L11.8371 28.4585H12.3035Z" fill="white"/>
<path d="M12.7703 28.4585L12.7536 32.9417H12.2871L12.3039 28.4585H12.7703Z" fill="white"/>
<path d="M13.2361 28.4585L13.2194 32.9417H12.7529L12.7697 28.4585H13.2361Z" fill="white"/>
<path d="M13.2197 32.9417L13.2365 28.4585H13.468V32.9417H13.2197Z" fill="white"/>
</g>
<mask id="mask3_8194_1151" style="mask-type:luminance" maskUnits="userSpaceOnUse" x="14" y="28" width="4" height="5">
<path d="M14.1367 28.4585H14.4824V30.4115H17.1736V28.4585H17.5192V32.9451H17.1736V30.7337H14.4824V32.9451H14.1367V28.4585Z" fill="white"/>
</mask>
<g mask="url(#mask3_8194_1151)">
<path d="M14.1669 28.4585L14.1535 32.9417H14.1367V28.4585H14.1669Z" fill="white"/>
<path d="M14.6361 28.4585L14.6193 32.9417H14.1562L14.1697 28.4585H14.6361Z" fill="white"/>
<path d="M15.0994 28.4585L15.0826 32.9417H14.6162L14.633 28.4585H15.0994Z" fill="white"/>
<path d="M15.5662 28.4585L15.5494 32.9417H15.083L15.0998 28.4585H15.5662Z" fill="white"/>
<path d="M16.033 28.4585L16.0162 32.9417H15.5498L15.5666 28.4585H16.033Z" fill="white"/>
<path d="M16.4988 28.4585L16.4821 32.9417H16.0156L16.0324 28.4585H16.4988Z" fill="white"/>
<path d="M16.9656 28.4585L16.9489 32.9417H16.4824L16.4992 28.4585H16.9656Z" fill="white"/>
<path d="M17.4315 28.4585L17.4147 32.9417H16.9482L16.965 28.4585H17.4315Z" fill="white"/>
<path d="M17.415 32.9417L17.4318 28.4585H17.5191V32.9417H17.415Z" fill="white"/>
</g>
<mask id="mask4_8194_1151" style="mask-type:luminance" maskUnits="userSpaceOnUse" x="18" y="28" width="4" height="5">
<path d="M21.4721 30.7403H19.1835V32.6228H21.6902L21.6399 32.9416H18.8379V28.4551H21.5862V28.7739H19.1835V30.4148H21.4721V30.7336V30.7403Z" fill="white"/>
</mask>
<g mask="url(#mask4_8194_1151)">
<path d="M19.2943 28.4585L19.2808 32.9417H18.8379V28.4585H19.2943Z" fill="white"/>
<path d="M19.7601 28.458L19.7434 32.9412H19.2803L19.2937 28.458H19.7601Z" fill="white"/>
<path d="M20.2274 28.458L20.2106 32.9412H19.7441L19.7609 28.458H20.2274Z" fill="white"/>
<path d="M20.6932 28.458L20.6764 32.9412H20.21L20.2267 28.458H20.6932Z" fill="white"/>
<path d="M21.16 28.458L21.1432 32.9412H20.6768L20.6935 28.458H21.16Z" fill="white"/>
<path d="M21.6268 28.458L21.61 32.9412H21.1436L21.1603 28.458H21.6268Z" fill="white"/>
<path d="M21.6094 32.9412L21.6262 28.458H21.6899V32.9412H21.6094Z" fill="white"/>
</g>
<mask id="mask5_8194_1151" style="mask-type:luminance" maskUnits="userSpaceOnUse" x="22" y="28" width="4" height="5">
<path d="M22.9285 30.8477V32.9416H22.5762V28.4551H24.1835C25.0661 28.4551 25.5359 28.9282 25.5359 29.6329C25.5359 30.2034 25.197 30.5759 24.697 30.6833C25.1601 30.7906 25.4654 31.0927 25.4654 31.8544V32.0289C25.4654 32.3443 25.4386 32.7671 25.5225 32.9383H25.1701C25.0862 32.747 25.1064 32.3879 25.1064 32.002V31.8879C25.1064 31.1497 24.8882 30.8443 24.0292 30.8443H22.9285V30.8477ZM22.9285 30.5255H24.0124C24.801 30.5255 25.1668 30.2302 25.1668 29.643C25.1668 29.0927 24.8077 28.7772 24.1097 28.7772H22.9319V30.5255H22.9285Z" fill="white"/>
</mask>
<g mask="url(#mask5_8194_1151)">
<path d="M23.0227 28.7764L23.016 30.5247H22.9287V28.7764H23.0227Z" fill="white"/>
<path d="M23.4888 28.7764L23.4821 30.5247H23.0156L23.0223 28.7764H23.4888Z" fill="white"/>
<path d="M23.9556 28.7764L23.9489 30.5247H23.4824L23.4891 28.7764H23.9556Z" fill="white"/>
<path d="M24.4224 28.7764L24.4157 30.5247H23.9492L23.9559 28.7764H24.4224Z" fill="white"/>
<path d="M24.8882 28.7764L24.8815 30.5247H24.415L24.4218 28.7764H24.8882Z" fill="white"/>
<path d="M24.8818 30.5247L24.8885 28.7764H25.1637V30.5247H24.8818Z" fill="white"/>
<path d="M23.0258 28.4585L23.0091 32.9417H22.5762V28.4585H23.0258Z" fill="white"/>
<path d="M23.492 28.458L23.4752 32.9412H23.0088L23.0256 28.458H23.492Z" fill="white"/>
<path d="M23.9588 28.458L23.942 32.9412H23.4756L23.4924 28.458H23.9588Z" fill="white"/>
<path d="M24.4222 28.458L24.4088 32.9412H23.9424L23.9592 28.458H24.4222Z" fill="white"/>
<path d="M24.8881 28.458L24.8713 32.9412H24.4082L24.4216 28.458H24.8881Z" fill="white"/>
<path d="M25.3543 28.458L25.3375 32.9412H24.8711L24.8879 28.458H25.3543Z" fill="white"/>
<path d="M25.3379 32.9412L25.3547 28.458H25.5359V32.9412H25.3379Z" fill="white"/>
</g>
<mask id="mask6_8194_1151" style="mask-type:luminance" maskUnits="userSpaceOnUse" x="27" y="28" width="6" height="6">
<path d="M32.032 30.6693C32.032 31.8941 31.3777 33.0082 29.9951 33.0082C28.7334 33.0082 27.9951 31.988 27.9951 30.7028C27.9951 29.4176 28.7065 28.3975 30.0387 28.3975C31.2703 28.3975 32.032 29.3639 32.032 30.6726V30.6693ZM28.3676 30.6793C28.3676 31.7095 28.9381 32.686 30.0152 32.686C31.1763 32.686 31.6629 31.7364 31.6629 30.676C31.6629 29.6156 31.1126 28.7163 30.0287 28.7163C28.8743 28.7163 28.3676 29.6726 28.3676 30.6827V30.6793Z" fill="white"/>
</mask>
<g mask="url(#mask6_8194_1151)">
<path d="M28.6155 28.7129L28.6021 32.686H28.3672V28.7129H28.6155Z" fill="white"/>
<path d="M29.0824 28.7129L29.069 32.686H28.6025L28.616 28.7129H29.0824Z" fill="white"/>
<path d="M29.5492 28.7129L29.5358 32.686H29.0693L29.0828 28.7129H29.5492Z" fill="white"/>
<path d="M30.015 28.7129L30.0016 32.686H29.5352L29.5486 28.7129H30.015Z" fill="white"/>
<path d="M30.4818 28.7129L30.4684 32.686H30.002L30.0154 28.7129H30.4818Z" fill="white"/>
<path d="M30.9476 28.7129L30.9342 32.686H30.4678L30.4812 28.7129H30.9476Z" fill="white"/>
<path d="M31.4144 28.7129L31.3977 32.686H30.9346L30.948 28.7129H31.4144Z" fill="white"/>
<path d="M31.3975 32.686L31.4142 28.7129H31.6592V32.686H31.3975Z" fill="white"/>
<path d="M28.1528 28.3936L28.1361 33.0043H27.9951V28.3936H28.1528Z" fill="white"/>
<path d="M28.619 28.3945L28.6022 33.0053H28.1357L28.1525 28.3945H28.619Z" fill="white"/>
<path d="M29.0858 28.3945L29.069 33.0053H28.6025L28.6193 28.3945H29.0858Z" fill="white"/>
<path d="M29.5526 28.3945L29.5358 33.0053H29.0693L29.0861 28.3945H29.5526Z" fill="white"/>
<path d="M30.015 28.3945L29.9982 33.0053H29.5352L29.5519 28.3945H30.015Z" fill="white"/>
<path d="M30.4813 28.3945L30.4645 33.0053H29.998L30.0148 28.3945H30.4813Z" fill="white"/>
<path d="M30.9481 28.3945L30.9313 33.0053H30.4648L30.4816 28.3945H30.9481Z" fill="white"/>
<path d="M31.4139 28.3945L31.3971 33.0053H30.9307L30.9474 28.3945H31.4139Z" fill="white"/>
<path d="M31.8807 28.3945L31.8639 33.0053H31.3975L31.4142 28.3945H31.8807Z" fill="white"/>
<path d="M31.8643 33.0053L31.881 28.3945H32.032V33.0053H31.8643Z" fill="white"/>
</g>
<mask id="mask7_8194_1151" style="mask-type:luminance" maskUnits="userSpaceOnUse" x="33" y="28" width="3" height="5">
<path d="M33.0186 28.4584H35.7367V28.7772H33.3642V30.4685H35.589V30.7873H33.3642V32.9416H33.0186V28.4551V28.4584Z" fill="white"/>
</mask>
<g mask="url(#mask7_8194_1151)">
<path d="M33.2803 28.4585L33.2635 32.9417H33.0186V28.4585H33.2803Z" fill="white"/>
<path d="M33.7469 28.458L33.7301 32.9412H33.2637L33.2804 28.458H33.7469Z" fill="white"/>
<path d="M34.2137 28.458L34.1969 32.9412H33.7305L33.7472 28.458H34.2137Z" fill="white"/>
<path d="M34.6762 28.458L34.6627 32.9412H34.1963L34.2131 28.458H34.6762Z" fill="white"/>
<path d="M35.143 28.458L35.1262 32.9412H34.6631L34.6765 28.458H35.143Z" fill="white"/>
<path d="M35.126 32.9412L35.1428 28.458H35.7367V32.9412H35.126Z" fill="white"/>
</g>
<mask id="mask8_8194_1151" style="mask-type:luminance" maskUnits="userSpaceOnUse" x="37" y="28" width="5" height="5">
<path d="M38.6601 31.3913L38.0897 32.9416H37.7373L39.3849 28.4551H39.7943L41.5125 32.9416H41.1333L40.5494 31.3913H38.6601ZM40.4353 31.0725C39.9353 29.7403 39.6802 29.0994 39.5896 28.7974H39.5829C39.4722 29.1363 39.187 29.9316 38.7809 31.0725H40.4353Z" fill="white"/>
</mask>
<g mask="url(#mask8_8194_1151)">
<path d="M39.392 28.7969L39.3819 31.072H38.7812V28.7969H39.392Z" fill="white"/>
<path d="M40.2399 28.7969L40.2299 31.072H39.3809L39.3909 28.7969H40.2399Z" fill="white"/>
<path d="M40.2305 31.072L40.2405 28.7969H40.4352V31.072H40.2305Z" fill="white"/>
<path d="M38.5427 28.4585L38.5259 32.9417H37.7373V28.4585H38.5427Z" fill="white"/>
<path d="M39.3912 28.458L39.3744 32.9412H38.5254L38.5422 28.458H39.3912Z" fill="white"/>
<path d="M40.2408 28.458L40.224 32.9412H39.375L39.3918 28.458H40.2408Z" fill="white"/>
<path d="M41.0894 28.458L41.0726 32.9412H40.2236L40.2404 28.458H41.0894Z" fill="white"/>
<path d="M41.0723 32.9412L41.089 28.458H41.5085V32.9412H41.0723Z" fill="white"/>
</g>
<mask id="mask9_8194_1151" style="mask-type:luminance" maskUnits="userSpaceOnUse" x="42" y="28" width="4" height="5">
<path d="M42.3037 28.4584H42.6493V32.6228H45.0587L44.995 32.9416H42.3037V28.4551V28.4584Z" fill="white"/>
</mask>
<g mask="url(#mask9_8194_1151)">
<path d="M42.7903 28.4585L42.7735 32.9417H42.3037V28.4585H42.7903Z" fill="white"/>
<path d="M43.6392 28.458L43.6224 32.9412H42.7734L42.7902 28.458H43.6392Z" fill="white"/>
<path d="M44.4888 28.458L44.472 32.9412H43.623L43.6398 28.458H44.4888Z" fill="white"/>
<path d="M44.4717 32.9412L44.4885 28.458H45.0589V32.9412H44.4717Z" fill="white"/>
</g>
<mask id="mask10_8194_1151" style="mask-type:luminance" maskUnits="userSpaceOnUse" x="45" y="28" width="4" height="5">
<path d="M45.7529 28.4584H46.0986V32.6228H48.5079L48.4442 32.9416H45.7529V28.4551V28.4584Z" fill="white"/>
</mask>
<g mask="url(#mask10_8194_1151)">
<path d="M46.1858 28.4585L46.169 32.9417H45.7529V28.4585H46.1858Z" fill="white"/>
<path d="M47.0347 28.458L47.0213 32.9412H46.1689L46.1857 28.458H47.0347Z" fill="white"/>
<path d="M47.8873 28.458L47.8705 32.9412H47.0215L47.0349 28.458H47.8873Z" fill="white"/>
<path d="M47.8701 32.9412L47.8869 28.458H48.5077V32.9412H47.8701Z" fill="white"/>
</g>
<mask id="mask11_8194_1151" style="mask-type:luminance" maskUnits="userSpaceOnUse" x="50" y="28" width="6" height="5">
<path d="M54.7873 30.8813C54.7873 30.0021 54.794 29.1632 54.8141 28.7169H54.794C54.6161 29.3176 53.7034 31.529 53.1329 32.9451H52.794C52.3644 31.8478 51.4215 29.388 51.2168 28.7102H51.2034C51.2369 29.2236 51.247 30.2672 51.247 31.0357V32.9451H50.9014V28.4585H51.4215C52.0356 29.9954 52.8108 32.0088 52.9785 32.5155H52.992C53.0926 32.19 53.992 29.9518 54.6195 28.4585H55.1329V32.9451H54.7873V30.8813Z" fill="white"/>
</mask>
<g mask="url(#mask11_8194_1151)">
<path d="M51.2845 28.4585L51.2677 32.9417H50.9053V28.4585H51.2845Z" fill="white"/>
<path d="M52.1333 28.4585L52.1166 32.9417H51.2676L51.2844 28.4585H52.1333Z" fill="white"/>
<path d="M52.982 28.4585L52.9686 32.9417H52.1162L52.133 28.4585H52.982Z" fill="white"/>
<path d="M53.8345 28.4585L53.8177 32.9417H52.9688L52.9822 28.4585H53.8345Z" fill="white"/>
<path d="M54.6832 28.4585L54.6664 32.9417H53.8174L53.8342 28.4585H54.6832Z" fill="white"/>
<path d="M54.667 32.9417L54.6838 28.4585H55.1334V32.9417H54.667Z" fill="white"/>
</g>
<mask id="mask12_8194_1151" style="mask-type:luminance" maskUnits="userSpaceOnUse" x="56" y="28" width="4" height="5">
<path d="M59.0893 30.7403H56.8007V32.6228H59.3074L59.2571 32.9416H56.4551V28.4551H59.2034V28.7739H56.8007V30.4148H59.0893V30.7336V30.7403Z" fill="white"/>
</mask>
<g mask="url(#mask12_8194_1151)">
<path d="M57.2302 28.4585L57.2135 32.9417H56.4551V28.4585H57.2302Z" fill="white"/>
<path d="M58.0796 28.458L58.0629 32.9412H57.2139L57.2306 28.458H58.0796Z" fill="white"/>
<path d="M58.9283 28.458L58.9148 32.9412H58.0625L58.0793 28.458H58.9283Z" fill="white"/>
<path d="M58.915 32.9412L58.9285 28.458H59.3076V32.9412H58.915Z" fill="white"/>
</g>
<mask id="mask13_8194_1151" style="mask-type:luminance" maskUnits="userSpaceOnUse" x="60" y="28" width="5" height="5">
<path d="M64.0724 30.8813C64.0724 30.0021 64.0791 29.1632 64.0993 28.7169H64.0791C63.9013 29.3176 62.9885 31.529 62.4181 32.9451H62.0791C61.6496 31.8478 60.7067 29.388 60.502 28.7102H60.4885C60.5221 29.2236 60.5322 30.2672 60.5322 31.0357V32.9451H60.1865V28.4585H60.7067C61.3207 29.9954 62.0959 32.0088 62.2637 32.5155H62.2771C62.3778 32.19 63.2771 29.9518 63.9046 28.4585H64.4181V32.9451H64.0724V30.8813Z" fill="white"/>
</mask>
<g mask="url(#mask13_8194_1151)">
<path d="M60.63 28.4585L60.6132 32.9417H60.1904V28.4585H60.63Z" fill="white"/>
<path d="M61.479 28.4585L61.4623 32.9417H60.6133L60.6301 28.4585H61.479Z" fill="white"/>
<path d="M62.3277 28.4585L62.3109 32.9417H61.4619L61.4787 28.4585H62.3277Z" fill="white"/>
<path d="M63.1763 28.4585L63.1595 32.9417H62.3105L62.3273 28.4585H63.1763Z" fill="white"/>
<path d="M64.0259 28.4585L64.0091 32.9417H63.1602L63.1769 28.4585H64.0259Z" fill="white"/>
<path d="M64.0088 32.9417L64.0256 28.4585H64.4182V32.9417H64.0088Z" fill="white"/>
</g>
<mask id="mask14_8194_1151" style="mask-type:luminance" maskUnits="userSpaceOnUse" x="65" y="28" width="4" height="5">
<path d="M68.3745 30.7403H66.0859V32.6228H68.5926L68.5422 32.9416H65.7402V28.4551H68.4885V28.7739H66.0859V30.4148H68.3745V30.7336V30.7403Z" fill="white"/>
</mask>
<g mask="url(#mask14_8194_1151)">
<path d="M66.5758 28.4585L66.559 32.9417H65.7402V28.4585H66.5758Z" fill="white"/>
<path d="M67.4253 28.458L67.4086 32.9412H66.5596L66.5763 28.458H67.4253Z" fill="white"/>
<path d="M68.274 28.458L68.2572 32.9412H67.4082L67.425 28.458H68.274Z" fill="white"/>
<path d="M68.2568 32.9412L68.2736 28.458H68.5924V32.9412H68.2568Z" fill="white"/>
</g>
<mask id="mask15_8194_1151" style="mask-type:luminance" maskUnits="userSpaceOnUse" x="70" y="28" width="5" height="5">
<path d="M74.525 31.743C74.3136 32.4544 73.7868 32.9913 72.8405 32.9913C71.5519 32.9913 70.874 31.9644 70.874 30.7027C70.874 29.441 71.5418 28.3906 72.8472 28.3906C73.8136 28.3906 74.3841 28.9275 74.5317 29.6792H74.1861C73.9814 29.0953 73.6022 28.7128 72.827 28.7128C71.7129 28.7128 71.2431 29.7329 71.2431 30.6993C71.2431 31.6658 71.7062 32.6725 72.8505 32.6725C73.5821 32.6725 73.9512 32.2933 74.176 31.743H74.5217H74.525Z" fill="white"/>
</mask>
<g mask="url(#mask15_8194_1151)">
<path d="M71.6721 28.3945L71.6554 32.9952H70.8701V28.3945H71.6721Z" fill="white"/>
<path d="M72.522 28.3945L72.5052 32.9952H71.6562L71.673 28.3945H72.522Z" fill="white"/>
<path d="M73.3707 28.3945L73.3539 32.9952H72.5049L72.5217 28.3945H73.3707Z" fill="white"/>
<path d="M74.2193 28.3945L74.2025 32.9952H73.3535L73.3703 28.3945H74.2193Z" fill="white"/>
<path d="M74.2031 32.9952L74.2199 28.3945H74.532V32.9952H74.2031Z" fill="white"/>
</g>
<mask id="mask16_8194_1151" style="mask-type:luminance" maskUnits="userSpaceOnUse" x="75" y="28" width="5" height="6">
<path d="M79.2664 30.6693C79.2664 31.8941 78.612 33.0082 77.2295 33.0082C75.9677 33.0082 75.2295 31.988 75.2295 30.7028C75.2295 29.4176 75.9409 28.3975 77.2731 28.3975C78.5046 28.3975 79.2664 29.3639 79.2664 30.6726V30.6693ZM75.602 30.6793C75.602 31.7095 76.1724 32.686 77.2496 32.686C78.4107 32.686 78.8973 31.7364 78.8973 30.676C78.8973 29.6156 78.3469 28.7163 77.263 28.7163C76.1087 28.7163 75.602 29.6726 75.602 30.6827V30.6793Z" fill="white"/>
</mask>
<g mask="url(#mask16_8194_1151)">
<path d="M75.918 28.7129L75.9045 32.686H75.6025V28.7129H75.918Z" fill="white"/>
<path d="M76.7667 28.7129L76.7533 32.686H75.9043L75.9177 28.7129H76.7667Z" fill="white"/>
<path d="M77.6153 28.7129L77.6019 32.686H76.7529L76.7664 28.7129H77.6153Z" fill="white"/>
<path d="M78.464 28.7129L78.4506 32.686H77.6016L77.615 28.7129H78.464Z" fill="white"/>
<path d="M78.4512 32.686L78.4646 28.7129H78.8941V32.686H78.4512Z" fill="white"/>
<path d="M75.9174 28.3936L75.9006 33.0043H75.2295V28.3936H75.9174Z" fill="white"/>
<path d="M76.7695 28.3945L76.7527 33.0053H75.9004L75.9172 28.3945H76.7695Z" fill="white"/>
<path d="M77.6187 28.3945L77.6019 33.0053H76.7529L76.7697 28.3945H77.6187Z" fill="white"/>
<path d="M78.4673 28.3945L78.4506 33.0053H77.6016L77.6183 28.3945H78.4673Z" fill="white"/>
<path d="M78.4512 33.0053L78.4679 28.3945H79.2666V33.0053H78.4512Z" fill="white"/>
</g>
<mask id="mask17_8194_1151" style="mask-type:luminance" maskUnits="userSpaceOnUse" x="80" y="28" width="1" height="5">
<path d="M80.5986 28.4585V32.9451H80.2529V28.4585H80.5986Z" fill="white"/>
</mask>
<g mask="url(#mask17_8194_1151)">
<path d="M80.5986 28.4585H80.2529V32.9451H80.5986V28.4585Z" fill="white"/>
</g>
<mask id="mask18_8194_1151" style="mask-type:luminance" maskUnits="userSpaceOnUse" x="81" y="28" width="5" height="5">
<path d="M81.9209 32.9416V28.4551H82.4343C83.1323 29.5323 84.7732 32.0356 85.0551 32.5222H85.0618C85.0216 31.8745 85.0283 31.2168 85.0283 30.4853V28.4551H85.3806V32.9416H84.9075C84.243 31.9047 82.5753 29.2973 82.2565 28.8041H82.2498C82.2833 29.3947 82.2766 30.0457 82.2766 30.8611V32.945H81.9243L81.9209 32.9416Z" fill="white"/>
</mask>
<g mask="url(#mask18_8194_1151)">
<path d="M82.7162 28.4585L82.6994 32.9417H81.9209V28.4585H82.7162Z" fill="white"/>
<path d="M83.565 28.458L83.5482 32.9412H82.6992L82.716 28.458H83.565Z" fill="white"/>
<path d="M84.4136 28.458L84.3968 32.9412H83.5479L83.5646 28.458H84.4136Z" fill="white"/>
<path d="M85.2632 28.458L85.2465 32.9412H84.3975L84.4142 28.458H85.2632Z" fill="white"/>
<path d="M85.2461 32.9412L85.2629 28.458H85.3803V32.9412H85.2461Z" fill="white"/>
</g>
<mask id="mask19_8194_1151" style="mask-type:luminance" maskUnits="userSpaceOnUse" x="86" y="28" width="4" height="5">
<path d="M86.6695 31.7368C86.8037 32.3341 87.203 32.6865 87.9379 32.6865C88.7567 32.6865 89.0722 32.2771 89.0722 31.7905C89.0722 31.3039 88.8473 30.9717 87.8608 30.7267C86.9111 30.4885 86.5017 30.1831 86.5017 29.5355C86.5017 28.9449 86.9312 28.3945 87.891 28.3945C88.8507 28.3945 89.2936 28.9952 89.3507 29.5422H88.9916C88.8876 29.0623 88.5755 28.7167 87.8708 28.7167C87.2232 28.7167 86.8708 29.0187 86.8708 29.5187C86.8708 30.0187 87.1661 30.2032 87.9916 30.4079C89.2534 30.7234 89.4379 31.2267 89.4379 31.767C89.4379 32.4281 88.9581 32.9985 87.9178 32.9985C86.797 32.9985 86.3876 32.3442 86.3037 31.7435H86.6628L86.6695 31.7368Z" fill="white"/>
</mask>
<g mask="url(#mask19_8194_1151)">
<path d="M86.9625 28.3945L86.9458 32.9952H86.3115V28.3945H86.9625Z" fill="white"/>
<path d="M87.8111 28.3945L87.7943 32.9952H86.9453L86.9621 28.3945H87.8111Z" fill="white"/>
<path d="M88.6631 28.3945L88.6463 32.9952H87.7939L87.8107 28.3945H88.6631Z" fill="white"/>
<path d="M88.6455 32.9952L88.6623 28.3945H89.4408V32.9952H88.6455Z" fill="white"/>
</g>
<path d="M12.6529 9.79388L8.78046 9.512V4.56572H8.67979C8.41469 4.55565 8.17308 4.54894 7.95161 4.54894C6.9147 4.54894 6.18651 4.63619 5.76705 4.81404C5.34759 4.99189 5.12276 5.53216 5.0892 6.43484C5.07914 6.57913 5.06907 6.75363 5.06571 6.96504C5.059 7.17309 5.05565 7.38785 5.04893 7.60261C5.04222 7.81738 5.04222 7.99859 5.04222 8.13953V8.37107L13.4314 14.3778V18.861C13.4314 19.8542 13.1999 20.7569 12.7368 21.5757C12.2737 22.3911 11.6093 23.0421 10.7435 23.5287C9.87777 24.0153 8.83415 24.2569 7.60933 24.2569H0.555664V15.8006L4.42813 16.0825L4.908 20.2536C5.31739 20.2536 5.68652 20.2603 6.01537 20.2703C6.24692 20.2804 6.46168 20.2871 6.65967 20.2871C7.18987 20.2871 7.63617 20.2502 7.99859 20.1797C8.36436 20.1093 8.61268 19.871 8.74355 19.4683C8.87442 19.0657 8.94153 18.4012 8.94153 17.4751V17.1764L0.555664 11.0489V5.95162C0.555664 4.95833 0.783851 4.05565 1.24358 3.23686C1.69995 2.42143 2.36438 1.77043 3.23686 1.28385C4.10934 0.797278 5.15632 0.555664 6.38114 0.555664H13.2301L12.6496 9.78717L12.6529 9.79388Z" fill="white"/>
<path d="M24.1833 0.558594H29.0323V24.2699H24.1833V17.0384L20.0793 16.7733H20.0625V24.2699H15.1968V17.2196L13.4082 13.1156H15.1968V0.558594H20.0625V13.1156H24.1833V0.558594Z" fill="white"/>
<path d="M43.8236 4.66316L36.3941 4.21685V13.1195H43.8236V17.2235L36.3941 16.7772V20.5993L43.8236 20.153V24.257H36.3941L31.5452 24.2738V17.2235L29.7432 13.1195H31.5452V0.5625H43.8236V4.66651V4.66316Z" fill="white"/>
<path d="M54.0989 24.3202L52.4613 18.082C51.8875 18.5015 51.3405 18.8874 50.8238 19.2397V24.2699H45.958V0.558594H53.0083C54.2432 0.558594 55.2935 0.800203 56.1593 1.28678C57.0251 1.77335 57.6895 2.42435 58.1526 3.23979C58.6157 4.05522 58.8472 4.96126 58.8472 5.95455V12.9881C58.1962 13.6055 57.4613 14.2465 56.6459 14.9075L59.1291 24.3236H54.0989V24.3202ZM50.8238 4.56529V13.9142C52.015 13.176 53.1895 12.2364 54.3472 11.1022V8.55521C54.3472 7.58541 54.3271 6.82702 54.2902 6.28676C54.2499 5.74649 54.1258 5.35052 53.911 5.1022C53.6962 4.85388 53.3439 4.69616 52.8607 4.62904C52.4513 4.58542 51.911 4.56193 51.2399 4.56193H50.8271L50.8238 4.56529Z" fill="white"/>
<path d="M73.475 4.66316L66.0455 4.21685V13.1195H73.475V17.2235L66.0455 16.7772V20.5993L73.475 20.153V24.257H66.0455L61.1965 24.2738V17.2235L59.3945 13.1195H61.1965V0.5625H73.475V4.66651V4.66316Z" fill="white"/>
<path d="M84.5787 0.558594H89.4445V13.5149L86.6827 15.5183L86.6659 15.535L86.6827 15.5518L89.4445 17.5719V24.2733H84.5787V19.988L82.5284 18.5149L80.4781 19.988V24.2733H75.6123V17.5719L78.374 15.5518L78.3908 15.535L78.374 15.5183L75.6123 13.5149V0.558594H80.4781V11.082L82.5284 12.5552L84.5787 11.082V0.558594Z" fill="white"/>
</svg>
