<svg width="19" height="16" viewBox="0 0 19 16" fill="none" xmlns="http://www.w3.org/2000/svg">
<path fill-rule="evenodd" clip-rule="evenodd" d="M2.83257 1.76997C2.57525 1.76997 2.34026 1.99358 2.34026 2.3033V13.6811C2.34026 13.9908 2.57525 14.2144 2.83257 14.2144H9.6018C9.85913 14.2144 10.0941 13.9908 10.0941 13.6811V2.3033C10.0941 1.99358 9.85913 1.76997 9.6018 1.76997H2.83257ZM0.617188 2.3033C0.617188 1.04207 1.59448 -0.0078125 2.83257 -0.0078125H9.6018C10.8399 -0.0078125 11.8172 1.04207 11.8172 2.3033V13.6811C11.8172 14.9423 10.8399 15.9922 9.6018 15.9922H2.83257C1.59448 15.9922 0.617188 14.9423 0.617188 13.6811V2.3033ZM5.35565 12.2589C5.35565 11.7679 5.74137 11.37 6.21719 11.37H6.22395C6.69977 11.37 7.08549 11.7679 7.08549 12.2589C7.08549 12.7498 6.69977 13.1477 6.22395 13.1477H6.21719C5.74137 13.1477 5.35565 12.7498 5.35565 12.2589Z" fill="white"/>
</svg>
