<svg height="512" viewBox="0 0 24 24" width="512" xmlns="http://www.w3.org/2000/svg" fill="white"><g id="Layer_2" data-name="Layer 2"><path d="m19 2h-14a3 3 0 0 0 -3 3v14a3 3 0 0 0 3 3h14a3 3 0 0 0 3-3v-14a3 3 0 0 0 -3-3zm-2.76 12.83a1 1 0 1 1 -1.41 1.41l-2.83-2.83-2.83 2.83a1 1 0 1 1 -1.41-1.41l2.83-2.83-2.83-2.83a1 1 0 0 1 1.41-1.41l2.83 2.83 2.83-2.83a1 1 0 1 1 1.41 1.41l-2.83 2.83z"/><path d="m19 23h-14a4 4 0 0 1 -4-4v-14a4 4 0 0 1 4-4h14a4 4 0 0 1 4 4v14a4 4 0 0 1 -4 4zm-14-20a2 2 0 0 0 -2 2v14a2 2 0 0 0 2 2h14a2 2 0 0 0 2-2v-14a2 2 0 0 0 -2-2z"/></g></svg>