<svg width="12" height="8" viewBox="0 0 12 8" fill="none" xmlns="http://www.w3.org/2000/svg">
<path d="M5.77848 7.36707L0.995977 2.58707C0.832643 2.42207 0.750977 2.22207 0.750977 1.98707C0.750977 1.75374 0.832643 1.55457 0.995977 1.38957L1.80598 0.61707C1.96931 0.453737 2.16848 0.37207 2.40348 0.37207C2.63848 0.37207 2.83764 0.453737 3.00098 0.61707L6.37598 3.99207L9.75098 0.61707C9.91431 0.453737 10.1135 0.37207 10.3485 0.37207C10.5835 0.37207 10.7826 0.453737 10.946 0.61707L11.756 1.38957C11.9193 1.55457 12.001 1.75374 12.001 1.98707C12.001 2.22207 11.9193 2.42207 11.756 2.58707L6.97348 7.36707C6.81014 7.5304 6.61098 7.61207 6.37598 7.61207C6.14098 7.61207 5.94181 7.5304 5.77848 7.36707Z" fill="white"/>
</svg>
