<svg width="55" height="55" viewBox="0 0 55 55" fill="none" xmlns="http://www.w3.org/2000/svg">
<path d="M38.7928 33.1879C40.2322 34.019 42.0727 33.5258 42.9037 32.0864C43.7348 30.647 43.2416 28.8065 41.8022 27.9754C40.3628 27.1444 38.5223 27.6376 37.6912 29.077C36.8602 30.5164 37.3534 32.3569 38.7928 33.1879Z" fill="url(#paint0_linear_8194_2479)"/>
<path d="M16.9003 20.5485C18.3397 21.3796 20.1803 20.8864 21.0113 19.447C21.8423 18.0076 21.3492 16.1671 19.9098 15.3361C18.4704 14.505 16.6298 14.9982 15.7988 16.4376C14.9678 17.877 15.461 19.7175 16.9003 20.5485Z" fill="url(#paint1_linear_8194_2479)"/>
<path d="M26.7668 17.9049C28.2062 18.736 30.0467 18.2428 30.8778 16.8034C31.7088 15.364 31.2156 13.5235 29.7762 12.6924C28.3368 11.8614 26.4963 12.3546 25.6653 13.794C24.8342 15.2334 25.3274 17.0739 26.7668 17.9049Z" fill="url(#paint2_linear_8194_2479)"/>
<path d="M36.1483 23.3219C37.5877 24.1529 39.4283 23.6597 40.2593 22.2203C41.0903 20.781 40.5972 18.9404 39.1578 18.1094C37.7184 17.2784 35.8779 17.7715 35.0468 19.2109C34.2158 20.6503 34.709 22.4908 36.1483 23.3219Z" fill="url(#paint3_linear_8194_2479)"/>
<path fill-rule="evenodd" clip-rule="evenodd" d="M27.5 3.66667C14.3372 3.66667 3.66667 14.3372 3.66667 27.5C3.66667 40.6628 14.3372 51.3333 27.5 51.3333C40.6628 51.3333 51.3333 40.6628 51.3333 27.5C51.3333 14.3372 40.6628 3.66667 27.5 3.66667ZM0 27.5C0 12.3122 12.3122 0 27.5 0C42.6878 0 55 12.3122 55 27.5C55 42.6878 42.6878 55 27.5 55C12.3122 55 0 42.6878 0 27.5ZM26.0717 21.2151C27.6338 21.0238 29.2157 21.3458 30.5785 22.1327C31.9414 22.9195 33.0112 24.1285 33.6265 25.5769C34.2418 27.0253 34.3692 28.6346 33.9893 30.1618C33.6893 31.3678 33.8763 32.6433 34.5096 33.7123C35.2741 34.9693 35.6002 36.4445 35.4365 37.9069C35.2723 39.3734 34.6249 40.7436 33.5962 41.8017C32.5675 42.8597 31.2161 43.5455 29.7547 43.7509C28.2934 43.9563 26.8053 43.6697 25.5248 42.9362L25.5204 42.9337C24.7514 42.4903 24.078 41.8988 23.5393 41.1933C22.822 40.2583 21.9275 39.4737 20.9069 38.8844C19.8858 38.2949 18.7585 37.9124 17.5894 37.7589L17.8281 35.9412L17.5937 37.7595C16.7125 37.6459 15.8626 37.3584 15.0934 36.9137L15.089 36.9111C13.8135 36.1689 12.8213 35.0234 12.2685 33.6552C11.7157 32.287 11.6339 30.7737 12.0359 29.3538C12.4378 27.9339 13.3008 26.6881 14.4887 25.8127C15.6733 24.9397 17.114 24.4845 18.585 24.5181C19.8273 24.532 21.0254 24.0562 21.9197 23.1935C23.0524 22.1009 24.5097 21.4065 26.0717 21.2151ZM28.7452 25.3081C28.0716 24.9192 27.2897 24.76 26.5176 24.8546C25.7455 24.9492 25.0252 25.2924 24.4654 25.8324C22.8734 27.3681 20.7397 28.2133 18.528 28.1844L18.5066 28.1841C17.845 28.1677 17.1967 28.3718 16.6639 28.7644C16.1312 29.1571 15.7441 29.7158 15.5639 30.3526C15.3836 30.9894 15.4203 31.6681 15.6682 32.2817C15.9158 32.8945 16.3598 33.4076 16.9307 33.7405C17.2789 33.9415 17.6636 34.0715 18.0624 34.1229L18.0667 34.1235C19.7136 34.3397 21.3017 34.8785 22.7402 35.709C24.1787 36.5395 25.4394 37.6455 26.4501 38.9636L26.4527 38.9671C26.6965 39.2865 27.0011 39.5545 27.349 39.7555C27.9229 40.0838 28.5896 40.212 29.2444 40.1199C29.8997 40.0278 30.5059 39.7202 30.9672 39.2457C31.4286 38.7712 31.7189 38.1567 31.7926 37.4989C31.8662 36.8412 31.7189 36.1777 31.3739 35.6129L31.3628 35.5946C30.2319 33.6937 29.8971 31.4232 30.431 29.2767C30.6188 28.5219 30.5559 27.7264 30.2517 27.0105C29.9476 26.2946 29.4188 25.697 28.7452 25.3081Z" fill="url(#paint4_linear_8194_2479)"/>
<defs>
<linearGradient id="paint0_linear_8194_2479" x1="55" y1="0.58511" x2="1.18266" y2="55.5724" gradientUnits="userSpaceOnUse">
<stop stop-color="#FF5A03"/>
<stop offset="0.495" stop-color="#FB9B00"/>
<stop offset="1" stop-color="#FAC43D"/>
</linearGradient>
<linearGradient id="paint1_linear_8194_2479" x1="55" y1="0.58511" x2="1.18266" y2="55.5724" gradientUnits="userSpaceOnUse">
<stop stop-color="#FF5A03"/>
<stop offset="0.495" stop-color="#FB9B00"/>
<stop offset="1" stop-color="#FAC43D"/>
</linearGradient>
<linearGradient id="paint2_linear_8194_2479" x1="55" y1="0.58511" x2="1.18266" y2="55.5724" gradientUnits="userSpaceOnUse">
<stop stop-color="#FF5A03"/>
<stop offset="0.495" stop-color="#FB9B00"/>
<stop offset="1" stop-color="#FAC43D"/>
</linearGradient>
<linearGradient id="paint3_linear_8194_2479" x1="55" y1="0.58511" x2="1.18266" y2="55.5724" gradientUnits="userSpaceOnUse">
<stop stop-color="#FF5A03"/>
<stop offset="0.495" stop-color="#FB9B00"/>
<stop offset="1" stop-color="#FAC43D"/>
</linearGradient>
<linearGradient id="paint4_linear_8194_2479" x1="55" y1="0.58511" x2="1.18266" y2="55.5724" gradientUnits="userSpaceOnUse">
<stop stop-color="#FF5A03"/>
<stop offset="0.495" stop-color="#FB9B00"/>
<stop offset="1" stop-color="#FAC43D"/>
</linearGradient>
</defs>
</svg>
