<svg width="17" height="16" viewBox="0 0 17 16" fill="none" xmlns="http://www.w3.org/2000/svg">
<path fill-rule="evenodd" clip-rule="evenodd" d="M8.75098 1.44673C5.13602 1.44673 2.20552 4.37723 2.20552 7.99219C2.20552 11.6071 5.13602 14.5376 8.75098 14.5376C12.3659 14.5376 15.2964 11.6071 15.2964 7.99219C15.2964 4.37723 12.3659 1.44673 8.75098 1.44673ZM0.750977 7.99219C0.750977 3.57391 4.3327 -0.0078125 8.75098 -0.0078125C13.1693 -0.0078125 16.751 3.57391 16.751 7.99219C16.751 12.4105 13.1693 15.9922 8.75098 15.9922C4.3327 15.9922 0.750977 12.4105 0.750977 7.99219Z" fill="white"/>
<path fill-rule="evenodd" clip-rule="evenodd" d="M0.750977 7.99219C0.750977 7.59053 1.07659 7.26491 1.47825 7.26491H16.0237C16.4254 7.26491 16.751 7.59053 16.751 7.99219C16.751 8.39385 16.4254 8.71946 16.0237 8.71946H1.47825C1.07659 8.71946 0.750977 8.39385 0.750977 7.99219Z" fill="white"/>
<path fill-rule="evenodd" clip-rule="evenodd" d="M6.56933 7.99218C6.61917 10.2284 7.38825 12.3814 8.75098 14.1371C10.1137 12.3814 10.8828 10.2284 10.9326 7.99218C10.8828 5.75593 10.1137 3.60297 8.75098 1.8473C7.38825 3.60297 6.61917 5.75593 6.56933 7.99218ZM8.75098 0.719449L8.214 0.22896C6.27599 2.35065 5.17462 5.10407 5.11477 7.97703C5.11456 7.98713 5.11456 7.99723 5.11477 8.00732C5.17462 10.8803 6.27599 13.6337 8.214 15.7554C8.35179 15.9062 8.54667 15.9922 8.75098 15.9922C8.95528 15.9922 9.15017 15.9062 9.28796 15.7554C11.226 13.6337 12.3273 10.8803 12.3872 8.00732C12.3874 7.99723 12.3874 7.98713 12.3872 7.97703C12.3273 5.10407 11.226 2.35065 9.28796 0.22896L8.75098 0.719449Z" fill="white"/>
</svg>
