<svg width="16" height="16" viewBox="0 0 16 16" fill="none" xmlns="http://www.w3.org/2000/svg">
<path d="M10.4455 12.6425C10.5367 12.9761 10.6435 13.3037 10.766 13.6254C10.8894 13.9471 10.9866 14.185 11.0575 14.339C11.1293 14.4948 11.1717 14.5846 11.1846 14.6083C11.3135 14.869 11.3393 15.1661 11.262 15.4997C11.1846 15.8332 11.0487 16 10.8544 16C10.0126 16 9.20302 15.5361 8.42569 14.6083C8.03702 14.7742 7.64835 14.8571 7.25968 14.8571C6.43077 14.8571 5.6829 14.5355 5.01609 13.8921C4.34927 13.2504 3.86022 12.4055 3.54891 11.3575C3.35458 11.3101 3.16669 11.2508 2.98525 11.1797C2.22173 12.1075 1.41216 12.5714 0.556536 12.5714C0.363123 12.5714 0.227273 12.4047 0.148987 12.0711C0.0716215 11.7376 0.0974099 11.4404 0.226352 11.1797C0.498972 10.7022 0.745344 10.047 0.965466 9.21397C0.395358 8.18963 0.110304 7.02307 0.110304 5.71429C0.110304 4.14307 0.505419 2.79788 1.29565 1.67873C2.08588 0.559577 3.03775 0 4.15126 0C4.98017 0 5.73126 0.321693 6.40452 0.965079C7.0787 1.60677 7.57098 2.45164 7.88137 3.49968C8.85304 3.71471 9.66583 4.35132 10.3198 5.40952C10.9737 6.46942 11.3006 7.71386 11.3006 9.14286C11.3006 10.4516 11.0156 11.6182 10.4455 12.6425ZM2.481 9.74984L2.81118 9.35619L3.19939 9.50095C3.50977 9.64318 3.82706 9.71429 4.15126 9.71429C4.99306 9.71429 5.72159 9.32148 6.33682 8.53587C6.95206 7.75027 7.25968 6.80974 7.25968 5.71429C7.25968 4.61884 6.95206 3.67831 6.33682 2.8927C5.72159 2.10709 4.99306 1.71429 4.15126 1.71429C3.30945 1.71429 2.58093 2.10709 1.96569 2.8927C1.35045 3.67831 1.04283 4.61884 1.04283 5.71429C1.04283 6.5473 1.23717 7.30921 1.62583 8L2.09141 8.85841L1.79991 10.0013C1.74833 10.1672 1.69675 10.3331 1.64518 10.499C1.92977 10.3331 2.20838 10.0834 2.481 9.74984ZM9.31953 12.287L9.7851 11.4286C10.1738 10.7378 10.3681 9.97587 10.3681 9.14286C10.3681 8.28614 10.1609 7.50646 9.74642 6.80381C9.33197 6.10116 8.80745 5.61862 8.17287 5.35619C8.18576 5.54751 8.19221 5.66688 8.19221 5.71429C8.19221 7.14328 7.8588 8.39365 7.19199 9.4654C6.52517 10.5354 5.69948 11.1661 4.71492 11.3575C5.3495 12.5477 6.19775 13.1429 7.25968 13.1429C7.58388 13.1429 7.90117 13.0717 8.21155 12.9295L8.59976 12.7848L8.92994 13.1784C9.20256 13.512 9.48117 13.7617 9.76576 13.9276C9.71419 13.7617 9.66261 13.5958 9.61103 13.4298L9.31953 12.287Z" fill="white"/>
</svg>
