<svg width="75" height="55" viewBox="0 0 75 55" fill="none" xmlns="http://www.w3.org/2000/svg">
<path fill-rule="evenodd" clip-rule="evenodd" d="M10.8482 8.07485C6.48063 10.0403 5 12.2399 5 13.75C5 15.2601 6.48063 17.4597 10.8482 19.4251C12.8304 20.3171 15.2157 21.0608 17.8932 21.5932C17.9549 21.603 18.0158 21.615 18.0759 21.6292C20.9345 22.1846 24.12 22.5 27.5 22.5C30.88 22.5 34.0655 22.1846 36.9241 21.6292C36.9842 21.615 37.0451 21.603 37.1068 21.5932C39.7843 21.0608 42.1696 20.3171 44.1518 19.4251C48.5194 17.4597 50 15.2601 50 13.75C50 12.2399 48.5194 10.0403 44.1518 8.07485C40.0188 6.21503 34.1338 5 27.5 5C20.8662 5 14.9812 6.21503 10.8482 8.07485ZM50 21.8534C48.8363 22.6712 47.5431 23.382 46.2036 23.9848C44.3557 24.8163 42.2677 25.5194 40 26.0732V33.4076C41.5238 32.9821 42.9174 32.4835 44.1539 31.9272C48.5195 29.963 50 27.7636 50 26.25V21.8534ZM35 34.4596V27.0086C32.6087 27.33 30.0908 27.5 27.5 27.5C24.9092 27.5 22.3913 27.33 20 27.0086V34.4596C22.339 34.8079 24.86 35 27.5 35C30.14 35 32.661 34.808 35 34.4596ZM15 33.4076V26.0732C12.7323 25.5194 10.6443 24.8163 8.79642 23.9848C7.45695 23.382 6.16374 22.6712 5 21.8534V26.25C5 27.7636 6.48053 29.963 10.8461 31.9272C12.0826 32.4835 13.4762 32.9821 15 33.4076ZM31.0178 39.8944C29.8641 39.9642 28.6897 40 27.5 40C26.6583 40 25.8244 39.9821 25 39.9469V41.25C25 42.7636 26.4805 44.963 30.8461 46.9272C32.0826 47.4835 33.4762 47.9821 35 48.4076V41.0756C33.5974 40.7354 32.265 40.3396 31.0178 39.8944ZM40 42.0072V49.4596C42.339 49.808 44.86 50 47.5 50C50.14 50 52.661 49.808 55 49.4596V42.009C52.6089 42.33 50.091 42.4998 47.5 42.4998C44.9077 42.4998 42.3894 42.3282 40 42.0072ZM57.1297 36.5897C57.0528 36.6012 56.977 36.6161 56.9025 36.6343C54.05 37.1864 50.8721 37.4998 47.5 37.4998C46.3025 37.4998 45.128 37.4598 43.9828 37.3834C44.7566 37.1041 45.4986 36.8049 46.2054 36.4869C50.8868 34.3807 55 30.9552 55 26.25V20.5394C59.2853 21.185 62.9324 22.3471 65.5822 23.7893C68.9175 25.6046 70 27.4475 70 28.7498C70 30.2633 68.5195 32.4628 64.1539 34.4269C62.1772 35.3163 59.7993 36.058 57.1297 36.5897ZM60 41.0746V48.4076C61.5238 47.9821 62.9174 47.4835 64.1539 46.9272C68.5195 44.963 70 42.7636 70 41.25V36.8565C68.8369 37.6739 67.5444 38.3842 66.2054 38.9867C64.3572 39.8182 62.2685 40.5212 60 41.0746ZM75 28.7498V41.25C75 45.9552 70.8868 49.3807 66.2054 51.4869C61.2906 53.6982 54.6755 55 47.5 55C40.3245 55 33.7095 53.6982 28.7946 51.4869C24.1132 49.3807 20 45.9552 20 41.25V39.5093C15.769 38.9413 11.9348 37.8997 8.79457 36.4869C4.11322 34.3807 0 30.9552 0 26.25V13.75C0 9.04685 4.11581 5.62152 8.79642 3.51524C13.7117 1.30337 20.3266 0 27.5 0C34.6734 0 41.2883 1.30337 46.2036 3.51524C50.8842 5.62152 55 9.04685 55 13.75V15.4885C60.0273 16.1719 64.5309 17.5245 67.9725 19.3977C71.7856 21.473 75 24.6146 75 28.7498Z" fill="url(#paint0_linear_8194_13)"/>
<defs>
<linearGradient id="paint0_linear_8194_13" x1="75" y1="0.58511" x2="24.001" y2="71.6411" gradientUnits="userSpaceOnUse">
<stop stop-color="#FF5A03"/>
<stop offset="0.495" stop-color="#FB9B00"/>
<stop offset="1" stop-color="#FAC43D"/>
</linearGradient>
</defs>
</svg>
