<svg width="59" height="55" viewBox="0 0 59 55" fill="none" xmlns="http://www.w3.org/2000/svg">
<path fill-rule="evenodd" clip-rule="evenodd" d="M15.2252 2.6289C16.9085 0.945643 19.1915 0 21.572 0C23.9524 0 26.2354 0.945643 27.9187 2.6289L27.9257 2.63588C28.5724 3.28832 29.0865 4.07317 29.4998 4.89811C29.913 4.07317 30.4271 3.28834 31.0739 2.6359L31.0808 2.6289C32.7641 0.945643 35.0471 0 37.4276 0C39.808 0 42.091 0.945643 43.7743 2.6289C45.4575 4.31216 46.4032 6.59514 46.4032 8.97562C46.4032 11.0578 45.6797 13.0653 44.372 14.6622H54.1509C56.6263 14.6622 58.6329 16.6688 58.6329 19.1442V28.1081C58.6329 30.5834 56.6263 32.5901 54.1509 32.5901V50.518C54.1509 51.7067 53.6787 52.8467 52.8382 53.6873C51.9977 54.5278 50.8577 55 49.669 55H9.33115C8.14246 55 7.00245 54.5278 6.16191 53.6873C5.32137 52.8467 4.84917 51.7067 4.84917 50.518V32.5901C2.37384 32.5901 0.367188 30.5834 0.367188 28.1081V19.1442C0.367188 16.6688 2.37384 14.6622 4.84917 14.6622H14.6275C13.3198 13.0653 12.5963 11.0578 12.5963 8.97562C12.5963 6.59514 13.542 4.31216 15.2252 2.6289ZM27.2591 19.1442H4.84917V28.1081H27.2591V19.1442ZM27.2591 32.5901H9.33115V50.518H27.2591V32.5901ZM31.741 50.518V32.5901H49.669V50.518H31.741ZM31.741 28.1081V19.1442H54.1509V28.1081H31.741ZM27.153 14.5562C27.0974 13.8195 27.0131 12.9661 26.8856 12.0725C26.6984 10.761 26.4255 9.41738 26.0376 8.25036C25.638 7.04835 25.1818 6.23609 24.7457 5.79443C23.9034 4.95403 22.762 4.48198 21.572 4.48198C20.3802 4.48198 19.2372 4.95542 18.3945 5.79814C17.5518 6.64086 17.0783 7.78383 17.0783 8.97562C17.0783 10.1656 17.5503 11.307 18.3907 12.1493C18.8323 12.5854 19.6446 13.0416 20.8467 13.4411C22.0137 13.829 23.3574 14.1018 24.669 14.2889C25.5627 14.4164 26.4162 14.5007 27.153 14.5562ZM31.847 14.5562C32.5837 14.5007 33.4372 14.4164 34.3308 14.2889C35.6423 14.1018 36.9859 13.829 38.1529 13.4411C39.3549 13.0416 40.1671 12.5854 40.6087 12.1494C41.4492 11.307 41.9212 10.1657 41.9212 8.97562C41.9212 7.78383 41.4478 6.64086 40.605 5.79814C39.7623 4.95542 38.6193 4.48198 37.4276 4.48198C36.2375 4.48198 35.0961 4.95403 34.2538 5.79443C33.8178 6.23606 33.3616 7.04829 32.9621 8.25028C32.5742 9.41728 32.3014 10.7609 32.1143 12.0724C31.9868 12.966 31.9025 13.8195 31.847 14.5562Z" fill="url(#paint0_linear_8194_1617)"/>
<defs>
<linearGradient id="paint0_linear_8194_1617" x1="58.6329" y1="0.58511" x2="4.97147" y2="58.6686" gradientUnits="userSpaceOnUse">
<stop stop-color="#FF5A03"/>
<stop offset="0.495" stop-color="#FB9B00"/>
<stop offset="1" stop-color="#FAC43D"/>
</linearGradient>
</defs>
</svg>
