<svg width="55" height="55" viewBox="0 0 55 55" fill="none" xmlns="http://www.w3.org/2000/svg">
<g clip-path="url(#clip0_7918_698)">
<path fill-rule="evenodd" clip-rule="evenodd" d="M1.89883 1.291C2.74008 0.464389 3.88106 0 5.07078 0H49.9289C51.1186 0 52.2596 0.464388 53.1009 1.291C53.9421 2.11762 54.4147 3.23875 54.4147 4.40776V20.5787C54.4147 45.2314 33.1137 53.3903 28.9367 54.7548C28.0077 55.0817 26.992 55.0817 26.0631 54.7548C21.886 53.3903 0.584961 45.2314 0.584961 20.5787V4.40776C0.584961 3.23875 1.05757 2.11762 1.89883 1.291ZM49.9289 4.40776L5.07078 4.40776L5.07078 20.5787C5.07078 42.1385 23.6302 49.3199 27.4999 50.5792C31.3696 49.3199 49.9289 42.1385 49.9289 20.5787V4.40776Z" fill="white"/>
<path fill-rule="evenodd" clip-rule="evenodd" d="M41.4587 16.1098C42.3138 16.9904 42.2803 18.3855 41.3841 19.2257L24.9267 34.6528C24.0596 35.4657 22.6953 35.4651 21.8289 34.6515L13.6143 26.9379C12.7187 26.097 12.6865 24.702 13.5423 23.822C14.3981 22.942 15.8179 22.9104 16.7135 23.7513L23.3798 30.011L38.2876 16.0364C39.1839 15.1962 40.6037 15.2291 41.4587 16.1098Z" fill="white"/>
</g>
<defs>
<clipPath id="clip0_7918_698">
<rect width="53.8298" height="55" fill="white" transform="translate(0.584961)"/>
</clipPath>
</defs>
</svg>
