<svg width="55" height="55" viewBox="0 0 55 55" fill="none" xmlns="http://www.w3.org/2000/svg">
<path fill-rule="evenodd" clip-rule="evenodd" d="M15.0924 1.34243C15.952 0.482887 17.1178 0 18.3333 0H50.4167C51.6322 0 52.798 0.482886 53.6576 1.34243C54.5171 2.20197 55 3.36776 55 4.58333V34.375C55 35.5906 54.5171 36.7564 53.6576 37.6159C52.798 38.4755 51.6322 38.9583 50.4167 38.9583H19.2826L22.2455 41.9212C23.1404 42.8162 23.1404 44.2672 22.2455 45.1621C21.3505 46.0571 19.8995 46.0571 19.0045 45.1621L12.1295 38.2871C11.2346 37.3922 11.2346 35.9412 12.1295 35.0462L19.0045 28.1712C19.8995 27.2763 21.3505 27.2763 22.2455 28.1712C23.1404 29.0662 23.1404 30.5172 22.2455 31.4121L19.2826 34.375H50.4167V4.58333L18.3333 4.58333V6.875C18.3333 8.14065 17.3073 9.16667 16.0417 9.16667C14.776 9.16667 13.75 8.14065 13.75 6.875V4.58333C13.75 3.36776 14.2329 2.20197 15.0924 1.34243ZM32.7545 9.83788C33.6495 8.94293 35.1005 8.94293 35.9955 9.83788L42.8705 16.7129C43.7654 17.6078 43.7654 19.0588 42.8705 19.9538L35.9955 26.8288C35.1005 27.7237 33.6495 27.7237 32.7545 26.8288C31.8596 25.9338 31.8596 24.4828 32.7545 23.5879L35.7174 20.625H4.58333L4.58333 50.4167H36.6667V48.125C36.6667 46.8594 37.6927 45.8333 38.9583 45.8333C40.224 45.8333 41.25 46.8594 41.25 48.125V50.4167C41.25 51.6322 40.7671 52.798 39.9076 53.6576C39.048 54.5171 37.8822 55 36.6667 55H4.58333C3.36776 55 2.20197 54.5171 1.34243 53.6576C0.482886 52.798 0 51.6322 0 50.4167V20.625C0 19.4094 0.482887 18.2436 1.34243 17.3841C2.20197 16.5246 3.36776 16.0417 4.58333 16.0417H35.7174L32.7545 13.0788C31.8596 12.1838 31.8596 10.7328 32.7545 9.83788Z" fill="url(#paint0_linear_8194_53)"/>
<defs>
<linearGradient id="paint0_linear_8194_53" x1="55" y1="0.58511" x2="1.18266" y2="55.5724" gradientUnits="userSpaceOnUse">
<stop stop-color="#FF5A03"/>
<stop offset="0.495" stop-color="#FB9B00"/>
<stop offset="1" stop-color="#FAC43D"/>
</linearGradient>
</defs>
</svg>
